<svg width="79" height="79" viewBox="0 0 79 79" fill="none" xmlns="http://www.w3.org/2000/svg">
<path d="M78 12.5C78.4 10.1 71.1667 3.83333 67.5 1H13C11 1 4.16667 8.16667 1 12V67.5C1 69.1 8 75.1667 11.5 78C29.8333 77.8333 66.7 77.6 67.5 78C68.3 78.4 74.8333 71.1667 78 67.5C77.8333 50.1667 77.6 14.9 78 12.5Z" fill="white" stroke="white"/>
<path d="M51 78.0714H38.5V48.5714H29V36.0714H38.5C37.3 15.2714 54.3333 13.738 63 15.5714V27.5714C50.2 22.7714 49 31.238 50 36.0714H63V48.5714H51V78.0714Z" fill="#4B3520" stroke="#4B3520"/>
</svg>
