<svg width="76" height="73" viewBox="0 0 76 73" fill="none" xmlns="http://www.w3.org/2000/svg">
<path d="M75 37C75 56.2931 57.0922 72 38 72C28.4825 72 19.1024 67.7151 12.0975 60.9916C5.09318 54.2686 0.5 45.1429 0.5 35.5C0.5 16.2069 18.4078 0.5 37.5 0.5C47.0175 0.5 56.3976 4.78491 63.4025 11.5084C70.4068 18.2314 75 27.3571 75 37Z" fill="white" stroke="white"/>
<path d="M29.6722 62.5V71H48.1722C48.1722 65.6667 48.0722 54.9 47.6722 54.5C47.2722 54.1 47.5055 52 47.6722 51C66.8722 46.2 63.3388 31 59.1722 24V13L48.1722 17.5C40.9722 13.9 32.5055 16 29.1722 17.5L19.1722 13L18.1722 24C9.77217 40.8 23.3388 49.3333 31.1722 51.5C32.3722 59.1 25.6722 59 22.1722 58C19.3388 54.6667 13.3722 48.3 12.1722 49.5C10.9722 50.7 16.3388 57 19.1722 60C19.9722 62 26.5055 62.5 29.6722 62.5Z" fill="#4B3520" stroke="#4B3520"/>
</svg>
