<svg width="78" height="77" viewBox="0 0 78 77" fill="none" xmlns="http://www.w3.org/2000/svg">
<path d="M57.9417 1H19.9417C11.5417 1 4.10839 13.3333 1.44172 19.5C1.10839 30 0.641721 52.5 1.44172 58.5C2.24172 64.5 14.1084 72.6667 19.9417 76C31.2751 75.6667 55.1417 75.2 59.9417 76C64.7417 76.8 72.9417 64.6667 76.4417 58.5C77.1084 50.6667 78.0417 31.9 76.4417 19.5C74.8417 7.1 63.4417 2 57.9417 1Z" fill="white" stroke="white"/>
<path d="M55.0153 8H20.5153C18.1153 8 11.1819 14.6667 8.01525 18C8.18192 30.1667 8.41525 55.2 8.01525 58C7.61525 60.8 15.1819 66.5 19.0153 69H57.0153C61.4153 69 67.1819 61.6667 69.5153 58C69.6819 48.5 69.9153 27.7 69.5153 20.5C69.1153 13.3 59.6819 9.16667 55.0153 8Z" fill="#4B3520" stroke="#4B3520"/>
<circle cx="38.5" cy="38.5" r="19.5" fill="white"/>
<ellipse cx="38.5" cy="38" rx="11.5" ry="12" fill="#4B3520"/>
<circle cx="57.5" cy="18.5" r="2.5" fill="white"/>
</svg>
